<svg width="72" height="72" viewBox="0 0 72 72" fill="none" xmlns="http://www.w3.org/2000/svg">
<path d="M4 20C4 11.1634 11.1634 4 20 4H52C60.8366 4 68 11.1634 68 20V52C68 60.8366 60.8366 68 52 68H20C11.1634 68 4 60.8366 4 52V20Z" fill="#4F0599"/>
<path d="M23.3727 36.8248C22.8296 36.4524 22.7957 35.6778 23.2708 35.2551L23.3727 35.1755L29.9344 30.6755C30.3899 30.3631 31.0123 30.4791 31.3247 30.9346C31.613 31.355 31.5364 31.9177 31.1646 32.2475L31.0656 32.3248L25.7051 36.0013L31.0656 39.6755C31.486 39.9638 31.6172 40.5163 31.3892 40.9579L31.3247 41.0657C31.0364 41.4862 30.4838 41.6173 30.0423 41.3894L29.9344 41.3248L23.3727 36.8248Z" fill="white"/>
<path d="M48.6303 36.825C49.1736 36.4526 49.2075 35.6777 48.7322 35.2549L48.6303 35.1753L42.0654 30.6753C41.6098 30.3631 40.9874 30.4792 40.6752 30.9348C40.3869 31.3553 40.4637 31.918 40.8356 32.2476L40.9346 32.325L46.2965 36.0006L40.9346 39.6753C40.5141 39.9636 40.3828 40.5161 40.6107 40.9577L40.6752 41.0655C40.9634 41.486 41.5159 41.6174 41.9575 41.3895L42.0654 41.325L48.6303 36.825Z" fill="white"/>
<path d="M38.0422 25.7127C38.2009 25.1837 38.7584 24.8835 39.2874 25.0422C39.7786 25.1896 40.0725 25.6808 39.9849 26.1737L39.9578 26.2874L33.9578 46.2874C33.7991 46.8164 33.2417 47.1165 32.7127 46.9578C32.2215 46.8105 31.9275 46.3193 32.0151 45.8263L32.0422 45.7127L38.0422 25.7127Z" fill="#C893FF"/>
<path fill-rule="evenodd" clip-rule="evenodd" d="M56 36C56 24.9543 47.0457 16 36 16C24.9543 16 16 24.9543 16 36C16 47.0457 24.9543 56 36 56C47.0457 56 56 47.0457 56 36ZM18.0273 36C18.0273 26.0589 26.0862 18 36.0273 18C45.9684 18 54.0273 26.0589 54.0273 36C54.0273 45.9411 45.9684 54 36.0273 54C26.0862 54 18.0273 45.9411 18.0273 36Z" fill="white"/>
</svg>
